HIERARCHY
ROOT Hip
{
	OFFSET 0 1.131 0.0052
	CHANNELS 6 Xposition Yposition Zposition Xrotation Yrotation Zrotation
	JOINT Abdomen
	{
		OFFSET 0 -0.047353 -0.05
		CHANNELS 3 Xrotation Zrotation Yrotation
		JOINT Chest
		{
			OFFSET 0 0.132153 0.007439
			CHANNELS 3 Xrotation Zrotation Yrotation
			JOINT Neck
			{
				OFFSET 0 0.3078 0.006161
				CHANNELS 3 Xrotation Zrotation Yrotation
				JOINT Head_comp
				{
					OFFSET 0 0.0884 0.013
					CHANNELS 3 Xrotation Yrotation Zrotation
					End Site
					{
						OFFSET -0 0.156 0.0624
					}
				}
			}
			JOINT Left_Collar
			{
				OFFSET 0.02282 0.250342 0.017193
				CHANNELS 2 Yrotation Zrotation
				JOINT Left_Shoulder
				{
					OFFSET 0.15421 0 0
					CHANNELS 3 Xrotation Yrotation Zrotation
					JOINT Left_Forearm
					{
						OFFSET 0.265212 0 0
						CHANNELS 2 Yrotation Xrotation
						JOINT Left_Hand
						{
							OFFSET 0.27571 0 0
							CHANNELS 2 Zrotation Yrotation
							JOINT L1ProxPhalanx
							{
								OFFSET 0.014142 0.001733 0.014142
								CHANNELS 3 Yrotation Zrotation Xrotation
								JOINT L1MidPhalanx
								{
									OFFSET 0.04 0 0
									CHANNELS 1 Zrotation
									JOINT L1DistPhalanx
									{
										OFFSET 0.035 0 0
										CHANNELS 1 Zrotation
										End Site
										{
											OFFSET 0.029 -0 -0
										}
									}
								}
							}
							JOINT L2ProxPhalanx
							{
								OFFSET 0.0821037 0.001578 0.0219996
								CHANNELS 2 Yrotation Zrotation
								JOINT L2MidPhalanx
								{
									OFFSET 0.04 0 0
									CHANNELS 1 Zrotation
									JOINT L2DistPhalanx
									{
										OFFSET 0.028 0 0
										CHANNELS 1 Zrotation
										End Site
										{
											OFFSET 0.02 -0 -0
										}
									}
								}
							}
							JOINT L3ProxPhalanx
							{
								OFFSET 0.083 0 0
								CHANNELS 2 Yrotation Zrotation
								JOINT L3MidPhalanx
								{
									OFFSET 0.053 0 0
									CHANNELS 1 Zrotation
									JOINT L3DistPhalanx
									{
										OFFSET 0.03 0 0
										CHANNELS 1 Zrotation
										End Site
										{
											OFFSET 0.023 -0 -0
										}
									}
								}
							}
							JOINT L4ProxPhalanx
							{
								OFFSET 0.077274 -0.000761 -0.0207055
								CHANNELS 2 Yrotation Zrotation
								JOINT L4MidPhalanx
								{
									OFFSET 0.05 0 0
									CHANNELS 1 Zrotation
									JOINT L4DistPhalanx
									{
										OFFSET 0.03 0 0
										CHANNELS 1 Zrotation
										End Site
										{
											OFFSET 0.023 -0 -0
										}
									}
								}
							}
							JOINT L5ProxPhalanx
							{
								OFFSET 0.0675499 -0.001644 -0.039
								CHANNELS 2 Yrotation Zrotation
								JOINT L5MidPhalanx
								{
									OFFSET 0.04 0 0
									CHANNELS 1 Zrotation
									JOINT L5DistPhalanx
									{
										OFFSET 0.021 0 0
										CHANNELS 1 Zrotation
										End Site
										{
											OFFSET 0.022 -0 -0
										}
									}
								}
							}
						}
					}
				}
			}
			JOINT Right_Collar
			{
				OFFSET -0.02282 0.250342 0.017193
				CHANNELS 2 Yrotation Zrotation
				JOINT Right_Shoulder
				{
					OFFSET -0.15421 0 0
					CHANNELS 3 Xrotation Yrotation Zrotation
					JOINT Right_Forearm
					{
						OFFSET -0.265212 0 0
						CHANNELS 2 Yrotation Xrotation
						JOINT Right_Hand
						{
							OFFSET -0.27571 3e-006 0
							CHANNELS 2 Zrotation Yrotation
							JOINT R1ProxPhalanx
							{
								OFFSET -0.014142 0.001733 0.014142
								CHANNELS 3 Yrotation Zrotation Xrotation
								JOINT R1MidPhalanx
								{
									OFFSET -0.04 0 0
									CHANNELS 1 Zrotation
									JOINT R1DistPhalanx
									{
										OFFSET -0.035 0 0
										CHANNELS 1 Zrotation
										End Site
										{
											OFFSET -0.029 -0 -0
										}
									}
								}
							}
							JOINT R2ProxPhalanx
							{
								OFFSET -0.0821037 0.001578 0.0219996
								CHANNELS 2 Yrotation Zrotation
								JOINT R2MidPhalanx
								{
									OFFSET -0.04 0 0
									CHANNELS 1 Zrotation
									JOINT R2DistPhalanx
									{
										OFFSET -0.028 0 0
										CHANNELS 1 Zrotation
										End Site
										{
											OFFSET -0.02 -0 -0
										}
									}
								}
							}
							JOINT R3ProxPhalanx
							{
								OFFSET -0.083 0 0
								CHANNELS 2 Yrotation Zrotation
								JOINT R3MidPhalanx
								{
									OFFSET -0.053 0 0
									CHANNELS 1 Zrotation
									JOINT R3DistPhalanx
									{
										OFFSET -0.03 0 0
										CHANNELS 1 Zrotation
										End Site
										{
											OFFSET -0.023 -0 -0
										}
									}
								}
							}
							JOINT R4ProxPhalanx
							{
								OFFSET -0.077274 -0.000761 -0.0207055
								CHANNELS 2 Yrotation Zrotation
								JOINT R4MidPhalanx
								{
									OFFSET -0.05 0 0
									CHANNELS 1 Zrotation
									JOINT R4DistPhalanx
									{
										OFFSET -0.03 0 0
										CHANNELS 1 Zrotation
										End Site
										{
											OFFSET -0.023 -0 -0
										}
									}
								}
							}
							JOINT R5ProxPhalanx
							{
								OFFSET -0.0675499 -0.001644 -0.039
								CHANNELS 2 Yrotation Zrotation
								JOINT R5MidPhalanx
								{
									OFFSET -0.04 0 0
									CHANNELS 1 Zrotation
									JOINT R5DistPhalanx
									{
										OFFSET -0.021 0 0
										CHANNELS 1 Zrotation
										End Site
										{
											OFFSET -0.022 -0 -0
										}
									}
								}
							}
						}
					}
				}
			}
		}
	}
	JOINT Left_Thigh
	{
		OFFSET 0.1118 -0.1612 -0.0442
		CHANNELS 3 Xrotation Zrotation Yrotation
		JOINT Left_Shin
		{
			OFFSET 0 -0.477856 0
			CHANNELS 1 Xrotation
			JOINT Left_Foot
			{
				OFFSET 0 -0.431952 0
				CHANNELS 2 Xrotation Zrotation
				JOINT Left_Toe
				{
					OFFSET 0 -0.0442 0.119
					CHANNELS 1 Xrotation
					End Site
					{
						OFFSET -0 -0 0.07
					}
				}
			}
		}
	}
	JOINT Right_Thigh
	{
		OFFSET -0.1118 -0.1612 -0.0442
		CHANNELS 3 Xrotation Zrotation Yrotation
		JOINT Right_Shin
		{
			OFFSET 0 -0.477856 0
			CHANNELS 1 Xrotation
			JOINT Right_Foot
			{
				OFFSET 0 -0.431952 0
				CHANNELS 2 Xrotation Zrotation
				JOINT Right_Toe
				{
					OFFSET 0 -0.0442 0.119
					CHANNELS 1 Xrotation
					End Site
					{
						OFFSET -0 -0 0.07
					}
				}
			}
		}
	}
}
MOTION
Frames: 14
Frame Time: 0.009975
-0.106399 -0.0600338 0.0458494 -4.98005e-013 3.84663e-008 -5.10927e-006 0 0 0 0 0 0 0 0 0 -0.712383 0.305507 0 -11.0224 -15.6016 -23.5922 -25.883 -23.5858 -27.5067 18.6012 5.76533 -4.79239 -31.2077 -75.2999 103.432 -7.6982 -7.69752 -7.09797 -24.323 -10.1287 -14.5959 0.423301 0.549696 -4.23015 -5.45811 -0.912034 1.86366 -6.11902 -2.20658 8.23369 3.87216 -36.357 29.0501 0 3.88717 30.6237 11.2182 67.4665 82.6896 0 0 0 37.9386 28.008 73.698 26.2405 28.4472 13.118 18.2167 29.0248 19.6359 0 22.4358 32.6146 28.1246 -8.63175 30.7051 32.2053 23.7634 -7.83088 26.7354 35.1526 30.0193 0.419951 -0.340115 -0.00249295 0.0240216 -0.443965 0.340129 0 0.431356 -0.340115 -0.00256065 0 -0.431348 0.340129 0 
-0.106399 -0.0600338 0.0458494 -4.98005e-013 3.84663e-008 -5.10927e-006 0 0 0 0 0 0 0 0 0 -0.712383 0.305507 0 -11.0224 -15.6016 -23.5922 -25.883 -23.5858 -27.5067 18.6012 5.76533 -4.79239 -31.2077 -75.2999 103.432 -7.6982 -7.69752 -7.09797 -24.323 -10.1287 -14.5959 0.423301 0.549696 -4.23015 -5.45811 -0.912034 1.86366 -6.11902 -2.20658 8.23369 3.87216 -36.357 29.0501 0 3.88717 30.6237 11.2182 67.4665 82.6896 0 0 0 37.9386 28.008 73.698 26.2405 28.4472 13.118 18.2167 29.0248 19.6359 0 22.4358 32.6146 28.1246 -8.63175 30.7051 32.2053 23.7634 -7.83088 26.7354 35.1526 30.0193 0.419951 -0.340115 -0.00249295 0.0240216 -0.443965 0.340129 0 0.431356 -0.340115 -0.00256065 0 -0.431348 0.340129 0 
-0.101406 -0.0600774 0.0321723 1.39818e-013 -3.8348e-008 -5.08397e-006 0 -0 0 0 -0 0 0 -0 0 -0.70988 0.290994 -9.05877e-006 -10.9677 -15.5238 -23.5968 -25.6497 -24.1203 -27.3197 18.51 5.73652 -4.76845 -31.6998 -75.0739 102.942 -7.83471 -7.75903 -7.06751 -24.3513 -10.2781 -14.5979 0.421242 0.386949 -4.409 -5.52082 -0.900329 1.69437 -6.28842 -2.28554 8.22274 3.73282 -36.3452 28.8049 10.9677 15.5238 -23.5968 25.6497 24.1203 27.3197 18.51 -5.73652 4.76845 31.6998 75.0739 102.942 7.83471 7.75903 7.06751 24.3513 10.2781 14.5979 -0.421242 -0.386949 4.409 5.52082 0.900329 -1.69437 6.28842 2.28554 -8.22274 -3.73282 36.3452 -28.8049 -0.441357 -0.65458 0.00505502 0.0239015 0.417427 0.654605 0 -0.430009 -0.654581 0.00492505 2.40276e-006 0.429978 0.654605 0 
-0.10135 -0.0600866 0.0310663 1.40512e-013 -3.85407e-008 -5.10951e-006 0 -0 0 0 -0 0 0 -0 0 -0.711507 0.290614 -2.35627e-010 -11.0224 -15.6016 -23.5925 -25.8826 -23.5874 -27.5063 18.6012 5.76533 -4.79239 -31.2077 -75.2999 103.432 -7.6982 -7.69752 -7.09797 -24.323 -10.1287 -14.5959 0.423301 0.549696 -4.23015 -5.45811 -0.912034 1.86366 -6.11902 -2.20658 8.23369 3.87216 -36.357 29.0501 11.0224 15.6016 -23.5925 25.8826 23.5874 27.5063 18.6012 -5.76533 4.79239 31.2077 75.2999 103.432 7.6982 7.69752 7.09797 24.323 10.1287 14.5959 -0.423301 -0.549696 4.23015 5.45811 0.912034 -1.86366 6.11902 2.20658 -8.23369 -3.87216 36.357 -29.0501 -0.511075 -0.658112 0.00587039 0.0240216 0.48702 0.658143 0 -0.499669 -0.658113 0.00573939 2.41484e-006 0.499634 0.658143 0 
-0.10135 -0.0600868 0.031047 6.93459e-013 -4.46056e-008 -5.10947e-006 0 -0 0 0 -0 0 0 -0 0 -0.711482 0.290591 -8.67481e-015 -11.0224 -15.6016 -23.5922 -25.883 -23.5858 -27.5067 18.6012 5.76533 -4.79239 -31.2077 -75.2999 103.432 -7.6982 -7.69752 -7.09797 -24.323 -10.1287 -14.5959 0.423301 0.549696 -4.23015 -5.45811 -0.912034 1.86366 -6.11902 -2.20658 8.23369 3.87216 -36.357 29.0501 11.0224 15.6016 -23.5922 25.883 23.5858 27.5067 18.6012 -5.76533 4.79239 31.2077 75.2999 103.432 7.6982 7.69752 7.09797 24.323 10.1287 14.5959 -0.423301 -0.549696 4.23015 5.45811 0.912034 -1.86366 6.11902 2.20658 -8.23369 -3.87216 36.357 -29.0501 -0.512293 -0.658117 0.00588443 0.0240216 0.488238 0.658148 0 -0.500888 -0.658118 0.00575343 2.41484e-006 0.500853 0.658148 0 
-0.10135 -0.0600868 0.0310467 -1.46146e-014 -4.46695e-008 -5.10946e-006 0 -0 0 0 -0 0 0 -0 0 -0.711482 0.290591 -3.88256e-019 -11.0224 -15.6016 -23.5922 -25.883 -23.5858 -27.5067 18.6012 5.76533 -4.79239 -31.2077 -75.2999 103.432 -7.6982 -7.69752 -7.09797 -24.323 -10.1287 -14.5959 0.423301 0.549696 -4.23015 -5.45811 -0.912034 1.86366 -6.11902 -2.20658 8.23369 3.87216 -36.357 29.0501 11.0224 15.6016 -23.5922 25.883 23.5858 27.5067 18.6012 -5.76533 4.79239 31.2077 75.2999 103.432 7.6982 7.69752 7.09797 24.323 10.1287 14.5959 -0.423301 -0.549696 4.23015 5.45811 0.912034 -1.86366 6.11902 2.20658 -8.23369 -3.87216 36.357 -29.0501 -0.512307 -0.658117 0.00588459 0.0240216 0.488252 0.658148 0 -0.500902 -0.658118 0.00575359 3.01855e-008 0.500869 0.658148 0 
-0.10135 -0.0600868 0.0310467 -1.65255e-012 -4.46701e-008 -5.10947e-006 0 -0 0 0 -0 0 0 -0 0 -0.711482 0.290591 -0 -11.0224 -15.6016 -23.5922 -25.883 -23.5858 -27.5067 18.6012 5.76533 -4.79239 -31.2077 -75.2999 103.432 -7.6982 -7.69752 -7.09797 -24.323 -10.1287 -14.5959 0.423301 0.549696 -4.23015 -5.45811 -0.912034 1.86366 -6.11902 -2.20658 8.23369 3.87216 -36.357 29.0501 11.0224 15.6016 -23.5922 25.883 23.5858 27.5067 18.6012 -5.76533 4.79239 31.2077 75.2999 103.432 7.6982 7.69752 7.09797 24.323 10.1287 14.5959 -0.423301 -0.549696 4.23015 5.45811 0.912034 -1.86366 6.11902 2.20658 -8.23369 -3.87216 36.357 -29.0501 -0.512307 -0.658117 0.00588459 0.0240216 0.488252 0.658148 0 -0.500902 -0.658118 0.00575359 2.37861e-006 0.500866 0.658148 0 
-0.10135 -0.0600868 0.0310467 1.85611e-013 -4.46701e-008 -5.10946e-006 0 -0 0 0 -0 0 0 -0 0 -0.711482 0.290591 3.88256e-019 -11.0224 -15.6016 -23.5922 -25.883 -23.5858 -27.5067 18.6012 5.76533 -4.79239 -31.2077 -75.2999 103.432 -7.6982 -7.69752 -7.09797 -24.323 -10.1287 -14.5959 0.423301 0.549696 -4.23015 -5.45811 -0.912034 1.86366 -6.11902 -2.20658 8.23369 3.87216 -36.357 29.0501 11.0224 15.6016 -23.5922 25.883 23.5858 27.5067 18.6012 -5.76533 4.79239 31.2077 75.2999 103.432 7.6982 7.69752 7.09797 24.323 10.1287 14.5959 -0.423301 -0.549696 4.23015 5.45811 0.912034 -1.86366 6.11902 2.20658 -8.23369 -3.87216 36.357 -29.0501 -0.512307 -0.658117 0.00588459 0.0240216 0.488252 0.658148 0 -0.500902 -0.658118 0.00575359 2.41484e-006 0.500866 0.658148 0 
-0.10135 -0.0600868 0.0310467 9.28718e-013 -4.46701e-008 -5.10946e-006 0 -0 0 0 -0 0 0 -0 0 -0.711482 0.290591 -3.88256e-019 -11.0224 -15.6016 -23.5922 -25.883 -23.5858 -27.5067 18.6012 5.76533 -4.79239 -31.2077 -75.2999 103.432 -7.6982 -7.69752 -7.09797 -24.323 -10.1287 -14.5959 0.423301 0.549696 -4.23015 -5.45811 -0.912034 1.86366 -6.11902 -2.20658 8.23369 3.87216 -36.357 29.0501 11.0224 15.6016 -23.5922 25.883 23.5858 27.5067 18.6012 -5.76533 4.79239 31.2077 75.2999 103.432 7.6982 7.69752 7.09797 24.323 10.1287 14.5959 -0.423301 -0.549696 4.23015 5.45811 0.912034 -1.86366 6.11902 2.20658 -8.23369 -3.87216 36.357 -29.0501 -0.512307 -0.658117 0.00588459 0.0240216 0.488252 0.658148 0 -0.500902 -0.658118 0.00575359 3.41509e-008 0.500867 0.658148 0 
-0.10135 -0.0600868 0.0310467 3.03043e-013 -4.46701e-008 -5.10947e-006 0 -0 0 0 -0 0 0 -0 0 -0.711482 0.290591 -0 -11.0224 -15.6016 -23.5922 -25.883 -23.5858 -27.5067 18.6012 5.76533 -4.79239 -31.2077 -75.2999 103.432 -7.6982 -7.69752 -7.09797 -24.323 -10.1287 -14.5959 0.423301 0.549696 -4.23015 -5.45811 -0.912034 1.86366 -6.11902 -2.20658 8.23369 3.87216 -36.357 29.0501 11.0224 15.6016 -23.5922 25.883 23.5858 27.5067 18.6012 -5.76533 4.79239 31.2077 75.2999 103.432 7.6982 7.69752 7.09797 24.323 10.1287 14.5959 -0.423301 -0.549696 4.23015 5.45811 0.912034 -1.86366 6.11902 2.20658 -8.23369 -3.87216 36.357 -29.0501 -0.512307 -0.658117 0.00588459 0.0240216 0.488252 0.658148 0 -0.500902 -0.658118 0.00575359 1.66913e-006 0.500869 0.658148 0 
-0.10135 -0.0600868 0.0310467 -7.54591e-013 -4.46701e-008 -5.10946e-006 0 -0 0 0 -0 0 0 -0 0 -0.711482 0.290591 3.88256e-019 -11.0224 -15.6016 -23.5922 -25.883 -23.5858 -27.5067 18.6012 5.76533 -4.79239 -31.2077 -75.2999 103.432 -7.6982 -7.69752 -7.09797 -24.323 -10.1287 -14.5959 0.423301 0.549696 -4.23015 -5.45811 -0.912034 1.86366 -6.11902 -2.20658 8.23369 3.87216 -36.357 29.0501 11.0224 15.6016 -23.5922 25.883 23.5858 27.5067 18.6012 -5.76533 4.79239 31.2077 75.2999 103.432 7.6982 7.69752 7.09797 24.323 10.1287 14.5959 -0.423301 -0.549696 4.23015 5.45811 0.912034 -1.86366 6.11902 2.20658 -8.23369 -3.87216 36.357 -29.0501 -0.512307 -0.658117 0.00588459 0.0240216 0.488252 0.658148 0 -0.500902 -0.658118 0.00575359 1.70755e-006 0.500867 0.658148 0 
-0.10135 -0.0600868 0.0310467 2.63088e-013 -4.46701e-008 -5.10947e-006 0 -0 0 0 -0 0 0 -0 0 -0.711482 0.290591 -0 -11.0224 -15.6016 -23.5922 -25.883 -23.5858 -27.5067 18.6012 5.76533 -4.79239 -31.2077 -75.2999 103.432 -7.6982 -7.69752 -7.09797 -24.323 -10.1287 -14.5959 0.423301 0.549696 -4.23015 -5.45811 -0.912034 1.86366 -6.11902 -2.20658 8.23369 3.87216 -36.357 29.0501 11.0224 15.6016 -23.5922 25.883 23.5858 27.5067 18.6012 -5.76533 4.79239 31.2077 75.2999 103.432 7.6982 7.69752 7.09797 24.323 10.1287 14.5959 -0.423301 -0.549696 4.23015 5.45811 0.912034 -1.86366 6.11902 2.20658 -8.23369 -3.87216 36.357 -29.0501 -0.512307 -0.658117 0.00588459 0.0240216 0.488252 0.658148 0 -0.500904 -0.658118 0.00575361 2.41484e-006 0.500866 0.658148 0 
-0.10135 -0.0600868 0.0310467 -4.73658e-013 -4.46701e-008 -5.10947e-006 0 -0 0 0 -0 0 0 -0 0 -0.711482 0.290591 3.88256e-019 -11.0224 -15.6016 -23.5922 -25.883 -23.5858 -27.5067 18.6012 5.76533 -4.79239 -31.2077 -75.2999 103.432 -7.6982 -7.69752 -7.09797 -24.323 -10.1287 -14.5959 0.423301 0.549696 -4.23015 -5.45811 -0.912034 1.86366 -6.11902 -2.20658 8.23369 3.87216 -36.357 29.0501 11.0224 15.6016 -23.5922 25.883 23.5858 27.5067 18.6012 -5.76533 4.79239 31.2077 75.2999 103.432 7.6982 7.69752 7.09797 24.323 10.1287 14.5959 -0.423301 -0.549696 4.23015 5.45811 0.912034 -1.86366 6.11902 2.20658 -8.23369 -3.87216 36.357 -29.0501 -0.512307 -0.658117 0.00588459 0.0240216 0.488252 0.658148 0 -0.500902 -0.658118 0.00575359 1.02453e-007 0.500867 0.658148 0 
-0.10135 -0.0600868 0.0310467 -4.38672e-013 -4.46701e-008 -5.10946e-006 0 -0 0 0 -0 0 0 -0 0 -0.711482 0.290591 -3.88256e-019 -11.0224 -15.6016 -23.5922 -25.883 -23.5858 -27.5067 18.6012 5.76533 -4.79239 -31.2077 -75.2999 103.432 -7.6982 -7.69752 -7.09797 -24.323 -10.1287 -14.5959 0.423301 0.549696 -4.23015 -5.45811 -0.912034 1.86366 -6.11902 -2.20658 8.23369 3.87216 -36.357 29.0501 11.0224 15.6016 -23.5922 25.883 23.5858 27.5067 18.6012 -5.76533 4.79239 31.2077 75.2999 103.432 7.6982 7.69752 7.09797 24.323 10.1287 14.5959 -0.423301 -0.549696 4.23015 5.45811 0.912034 -1.86366 6.11902 2.20658 -8.23369 -3.87216 36.357 -29.0501 -0.512307 -0.658117 0.00588459 0.0240216 0.488252 0.658148 0 -0.500902 -0.658118 0.00575359 1.65205e-006 0.500869 0.658148 0 
